<?xml version="1.0" standalone="no"?>
<!DOCTYPE svg PUBLIC "-//W3C//DTD SVG 20010904//EN"
 "http://www.w3.org/TR/2001/REC-SVG-20010904/DTD/svg10.dtd">
<svg version="1.0" xmlns="http://www.w3.org/2000/svg"
 width="231.000000pt" height="231.000000pt" viewBox="0 0 231.000000 231.000000"
 preserveAspectRatio="xMidYMid meet">
<metadata>
Created by potrace 1.14, written by Peter Selinger 2001-2017
</metadata>
<g transform="translate(0.000000,231.000000) scale(0.100000,-0.100000)"
fill="#000000" stroke="none">
<path d="M896 2294 c-32 -8 -89 -29 -125 -46 -90 -44 -215 -168 -259 -259 -60
-125 -62 -141 -62 -716 0 -461 2 -523 16 -537 13 -14 57 -16 324 -16 267 0
311 2 324 16 14 14 16 98 16 779 0 681 -2 765 -16 779 -20 20 -134 20 -218 0z"/>
<path d="M1187 1386 c-15 -16 -17 -49 -17 -330 0 -229 3 -315 12 -324 9 -9 95
-12 324 -12 370 0 350 -6 341 105 -26 303 -269 546 -572 572 -59 5 -74 3 -88
-11z"/>
<path d="M465 660 c-17 -19 -18 -28 -7 -104 20 -153 75 -266 180 -370 107
-105 233 -165 385 -181 112 -12 107 -29 107 336 0 266 -2 310 -16 323 -13 14
-57 16 -323 16 -297 0 -309 -1 -326 -20z"/>
<path d="M1182 668 c-9 -9 -12 -95 -12 -324 0 -370 -6 -350 105 -341 303 26
546 269 572 572 9 111 29 105 -341 105 -229 0 -315 -3 -324 -12z"/>
</g>
</svg>
